# xmcd
#
# Track frame offsets:
#	150
#	21757
#	37492
#	52955
#	65030
#	80705
#	102380
#	124205
#	150382
#	171305
#	195830
#	217480
#	235730
#
# Disc length: 3347 seconds
#
# Revision: 2
# Processed by: cddbd v1.5.2PL0 Copyright (c) Steve Scherf et al.
# Submitted via: audiograbber 1.83.01
#
DISCID=bc0d110d
DTITLE=Cliff Barnes And The Fear Of Winning - The CD That Took 300 Million Year
DTITLE=s To Make
DYEAR=1988
DGENRE=Country-Rock
TTITLE0=Mexico
TTITLE1=Crazy About Kinsky
TTITLE2=Roses
TTITLE3=Nancy And Ronnie
TTITLE4=Little Egypt
TTITLE5=Sex
TTITLE6=Big Stick Blues
TTITLE7=Down Drinking At The Bar
TTITLE8=I Married A Nymphomaniac
TTITLE9=Sad Songs
TTITLE10=No One's Got An Asshole Like A Cowboy (live)
TTITLE11=Meaning Of Life
TTITLE12=Astronaut (live)
EXTD=
EXTT0=
EXTT1=
EXTT2=
EXTT3=
EXTT4=
EXTT5=
EXTT6=
EXTT7=
EXTT8=
EXTT9=
EXTT10=
EXTT11=
EXTT12=
PLAYORDER=
